<?xml version="1.0" encoding="UTF-8"?>
<svg width="18px" height="22px" viewBox="0 0 18 22" version="1.1" xmlns="http://www.w3.org/2000/svg" xmlns:xlink="http://www.w3.org/1999/xlink">
    <!-- Generator: Sketch 53.2 (72643) - https://sketchapp.com -->
    <title>map-pin</title>
    <desc>Created with Sketch.</desc>
    <g id="Design" stroke="none" stroke-width="1" fill="none" fill-rule="evenodd">
        <g id="HP" transform="translate(-1285.000000, -5392.000000)" stroke="#6A3332">
            <g id="Body-2" transform="translate(391.000000, 450.000000)">
                <g id="Body">
                    <g id="Get-in-touch" transform="translate(409.000000, 4109.000000)">
                        <g id="Link-(Hover)" transform="translate(415.000000, 644.000000)">
                            <g id="Group" transform="translate(70.000000, 175.000000)">
                                <g id="map-pin" transform="translate(0.000000, 14.000000)">
                                    <path d="M9,21.3906857 C9.02949004,21.3696192 9.06083308,21.3471107 9.09397347,21.323176 C9.39541706,21.1054668 9.73196478,20.8508986 10.0947866,20.5619849 C11.1322797,19.735833 12.1699365,18.801942 13.1370237,17.7811277 C15.8699508,14.8963713 17.5,11.9079477 17.5,9 C17.4999999,4.30557968 13.6944203,0.500000134 9,0.500000134 C4.30557968,0.500000134 0.50000007,4.30557968 0.5,9 C0.5,11.9079477 2.13004921,14.8963713 4.86297634,17.7811277 C5.83006355,18.801942 6.86772026,19.735833 7.90521339,20.5619849 C8.26803522,20.8508986 8.60458294,21.1054668 8.90602653,21.323176 C8.93916692,21.3471107 8.97050996,21.3696192 9,21.3906857 Z" id="Path"></path>
                                    <circle id="Oval" cx="9" cy="9" r="2.5"></circle>
                                </g>
                            </g>
                        </g>
                    </g>
                </g>
            </g>
        </g>
    </g>
</svg>