<svg xmlns="http://www.w3.org/2000/svg" viewBox="0 0 1274 20" width="1274" height="20"><path d="M6.5 0h1C11.09 0 14 2.91 14 6.5v7c0 3.59-2.91 6.5-6.5 6.5h-1C2.91 20 0 17.09 0 13.5v-7C0 2.91 2.91 0 6.5 0zM7 5c-.552 0-1 .448-1 1v2c0 .552.448 1 1 1s1-.448 1-1V6c0-.552-.448-1-1-1zM20.5 0h1C25.09 0 28 2.91 28 6.5v7c0 3.59-2.91 6.5-6.5 6.5h-1c-3.59 0-6.5-2.91-6.5-6.5v-7C14 2.91 16.91 0 20.5 0zm.5 5c-.552 0-1 .448-1 1v2.003c0 .552.448 1 1 1s1-.448 1-1V6c0-.552-.448-1-1-1zM34.5 0h1C39.09 0 42 2.91 42 6.5v7c0 3.59-2.91 6.5-6.5 6.5h-1c-3.59 0-6.5-2.91-6.5-6.5v-7C28 2.91 30.91 0 34.5 0zm.5 5c-.552 0-1 .448-1 1v2.014c0 .552.448 1 1 1s1-.448 1-1V6c0-.552-.448-1-1-1zM48.5 0h1C53.09 0 56 2.91 56 6.5v7c0 3.59-2.91 6.5-6.5 6.5h-1c-3.59 0-6.5-2.91-6.5-6.5v-7C42 2.91 44.91 0 48.5 0zm.5 5c-.552 0-1 .448-1 1v2.035c0 .552.448 1 1 1s1-.448 1-1V6c0-.552-.448-1-1-1zM62.5 0h1C67.09 0 70 2.91 70 6.5v7c0 3.59-2.91 6.5-6.5 6.5h-1c-3.59 0-6.5-2.91-6.5-6.5v-7C56 2.91 58.91 0 62.5 0zm.5 5c-.552 0-1 .448-1 1v2.066c0 .552.448 1 1 1s1-.448 1-1V6c0-.552-.448-1-1-1zM76.5 0h1C81.09 0 84 2.91 84 6.5v7c0 3.59-2.91 6.5-6.5 6.5h-1c-3.59 0-6.5-2.91-6.5-6.5v-7C70 2.91 72.91 0 76.5 0zm.5 5c-.552 0-1 .448-1 1v2.11c0 .552.448 1 1 1s1-.448 1-1V6c0-.552-.448-1-1-1zM90.5 0h1C95.09 0 98 2.91 98 6.5v7c0 3.59-2.91 6.5-6.5 6.5h-1c-3.59 0-6.5-2.91-6.5-6.5v-7C84 2.91 86.91 0 90.5 0zm.5 5c-.552 0-1 .448-1 1v2.17c0 .552.448 1 1 1s1-.448 1-1V6c0-.552-.448-1-1-1zM104.5 0h1c3.59 0 6.5 2.91 6.5 6.5v7c0 3.59-2.91 6.5-6.5 6.5h-1c-3.59 0-6.5-2.91-6.5-6.5v-7c0-3.59 2.91-6.5 6.5-6.5zm.5 5c-.552 0-1 .448-1 1v2.25c0 .552.448 1 1 1s1-.448 1-1V6c0-.552-.448-1-1-1zM118.5 0h1c3.59 0 6.5 2.91 6.5 6.5v7c0 3.59-2.91 6.5-6.5 6.5h-1c-3.59 0-6.5-2.91-6.5-6.5v-7c0-3.59 2.91-6.5 6.5-6.5zm.5 5c-.552 0-1 .448-1 1v2.35c0 .552.448 1 1 1s1-.448 1-1V6c0-.552-.448-1-1-1zM132.5 0h1c3.59 0 6.5 2.91 6.5 6.5v7c0 3.59-2.91 6.5-6.5 6.5h-1c-3.59 0-6.5-2.91-6.5-6.5v-7c0-3.59 2.91-6.5 6.5-6.5zm.5 5c-.552 0-1 .448-1 1v2.473c0 .552.448 1 1 1s1-.448 1-1V6c0-.552-.448-1-1-1zM146.5 0h1c3.59 0 6.5 2.91 6.5 6.5v7c0 3.59-2.91 6.5-6.5 6.5h-1c-3.59 0-6.5-2.91-6.5-6.5v-7c0-3.59 2.91-6.5 6.5-6.5zm.5 5c-.552 0-1 .448-1 1v2.614c0 .552.448 1 1 1s1-.448 1-1V6c0-.552-.448-1-1-1zM160.5 0h1c3.59 0 6.5 2.91 6.5 6.5v7c0 3.59-2.91 6.5-6.5 6.5h-1c-3.59 0-6.5-2.91-6.5-6.5v-7c0-3.59 2.91-6.5 6.5-6.5zm.5 5c-.552 0-1 .448-1 1v2.765c0 .552.448 1 1 1s1-.448 1-1V6c0-.552-.448-1-1-1zM174.5 0h1c3.59 0 6.5 2.91 6.5 6.5v7c0 3.59-2.91 6.5-6.5 6.5h-1c-3.59 0-6.5-2.91-6.5-6.5v-7c0-3.59 2.91-6.5 6.5-6.5zm.5 5c-.552 0-1 .448-1 1v2.915c0 .552.448 1 1 1s1-.448 1-1V6c0-.552-.448-1-1-1zM188.5 0h1c3.59 0 6.5 2.91 6.5 6.5v7c0 3.59-2.91 6.5-6.5 6.5h-1c-3.59 0-6.5-2.91-6.5-6.5v-7c0-3.59 2.91-6.5 6.5-6.5zm.5 5c-.552 0-1 .448-1 1v3.054c0 .552.448 1 1 1s1-.448 1-1V6c0-.552-.448-1-1-1zM202.5 0h1c3.59 0 6.5 2.91 6.5 6.5v7c0 3.59-2.91 6.5-6.5 6.5h-1c-3.59 0-6.5-2.91-6.5-6.5v-7c0-3.59 2.91-6.5 6.5-6.5zm.5 5c-.552 0-1 .448-1 1v3.181c0 .552.448 1 1 1s1-.448 1-1V6c0-.552-.448-1-1-1zM216.5 0h1c3.59 0 6.5 2.91 6.5 6.5v7c0 3.59-2.91 6.5-6.5 6.5h-1c-3.59 0-6.5-2.91-6.5-6.5v-7c0-3.59 2.91-6.5 6.5-6.5zm.5 5c-.552 0-1 .448-1 1v3.292c0 .552.448 1 1 1s1-.448 1-1V6c0-.552-.448-1-1-1zM230.5 0h1c3.59 0 6.5 2.91 6.5 6.5v7c0 3.59-2.91 6.5-6.5 6.5h-1c-3.59 0-6.5-2.91-6.5-6.5v-7c0-3.59 2.91-6.5 6.5-6.5zm.5 5c-.552 0-1 .448-1 1v3.39c0 .552.448 1 1 1s1-.448 1-1V6c0-.552-.448-1-1-1zM244.5 0h1c3.59 0 6.5 2.91 6.5 6.5v7c0 3.59-2.91 6.5-6.5 6.5h-1c-3.59 0-6.5-2.91-6.5-6.5v-7c0-3.59 2.91-6.5 6.5-6.5zm.5 5c-.552 0-1 .448-1 1v3.476c0 .552.448 1 1 1s1-.448 1-1V6c0-.552-.448-1-1-1zM258.5 0h1c3.59 0 6.5 2.91 6.5 6.5v7c0 3.59-2.91 6.5-6.5 6.5h-1c-3.59 0-6.5-2.91-6.5-6.5v-7c0-3.59 2.91-6.5 6.5-6.5zm.5 5c-.552 0-1 .448-1 1v3.551c0 .552.448 1 1 1s1-.448 1-1V6c0-.552-.448-1-1-1zM272.5 0h1c3.59 0 6.5 2.91 6.5 6.5v7c0 3.59-2.91 6.5-6.5 6.5h-1c-3.59 0-6.5-2.91-6.5-6.5v-7c0-3.59 2.91-6.5 6.5-6.5zm.5 5c-.552 0-1 .448-1 1v3.617c0 .552.448 1 1 1s1-.448 1-1V6c0-.552-.448-1-1-1zM286.5 0h1c3.59 0 6.5 2.91 6.5 6.5v7c0 3.59-2.91 6.5-6.5 6.5h-1c-3.59 0-6.5-2.91-6.5-6.5v-7c0-3.59 2.91-6.5 6.5-6.5zm.5 5c-.552 0-1 .448-1 1v3.674c0 .552.448 1 1 1s1-.448 1-1V6c0-.552-.448-1-1-1zM300.5 0h1c3.59 0 6.5 2.91 6.5 6.5v7c0 3.59-2.91 6.5-6.5 6.5h-1c-3.59 0-6.5-2.91-6.5-6.5v-7c0-3.59 2.91-6.5 6.5-6.5zm.5 5c-.552 0-1 .448-1 1v3.725c0 .552.448 1 1 1s1-.448 1-1V6c0-.552-.448-1-1-1zM314.5 0h1c3.59 0 6.5 2.91 6.5 6.5v7c0 3.59-2.91 6.5-6.5 6.5h-1c-3.59 0-6.5-2.91-6.5-6.5v-7c0-3.59 2.91-6.5 6.5-6.5zm.5 5c-.552 0-1 .448-1 1v3.769c0 .552.448 1 1 1s1-.448 1-1V6c0-.552-.448-1-1-1zM328.5 0h1c3.59 0 6.5 2.91 6.5 6.5v7c0 3.59-2.91 6.5-6.5 6.5h-1c-3.59 0-6.5-2.91-6.5-6.5v-7c0-3.59 2.91-6.5 6.5-6.5zm.5 5c-.552 0-1 .448-1 1v3.808c0 .552.448 1 1 1s1-.448 1-1V6c0-.552-.448-1-1-1zM342.5 0h1c3.59 0 6.5 2.91 6.5 6.5v7c0 3.59-2.91 6.5-6.5 6.5h-1c-3.59 0-6.5-2.91-6.5-6.5v-7c0-3.59 2.91-6.5 6.5-6.5zm.5 5c-.552 0-1 .448-1 1v3.842c0 .552.448 1 1 1s1-.448 1-1V6c0-.552-.448-1-1-1zM356.5 0h1c3.59 0 6.5 2.91 6.5 6.5v7c0 3.59-2.91 6.5-6.5 6.5h-1c-3.59 0-6.5-2.91-6.5-6.5v-7c0-3.59 2.91-6.5 6.5-6.5zm.5 5c-.552 0-1 .448-1 1v3.871c0 .552.448 1 1 1s1-.448 1-1V6c0-.552-.448-1-1-1zM370.5 0h1c3.59 0 6.5 2.91 6.5 6.5v7c0 3.59-2.91 6.5-6.5 6.5h-1c-3.59 0-6.5-2.91-6.5-6.5v-7c0-3.59 2.91-6.5 6.5-6.5zm.5 5c-.552 0-1 .448-1 1v3.897c0 .552.448 1 1 1s1-.448 1-1V6c0-.552-.448-1-1-1zM384.5 0h1c3.59 0 6.5 2.91 6.5 6.5v7c0 3.59-2.91 6.5-6.5 6.5h-1c-3.59 0-6.5-2.91-6.5-6.5v-7c0-3.59 2.91-6.5 6.5-6.5zm.5 5c-.552 0-1 .448-1 1v3.919c0 .552.448 1 1 1s1-.448 1-1V6c0-.552-.448-1-1-1zM398.5 0h1c3.59 0 6.5 2.91 6.5 6.5v7c0 3.59-2.91 6.5-6.5 6.5h-1c-3.59 0-6.5-2.91-6.5-6.5v-7c0-3.59 2.91-6.5 6.5-6.5zm.5 5c-.552 0-1 .448-1 1v3.938c0 .552.448 1 1 1s1-.448 1-1V6c0-.552-.448-1-1-1zM412.5 0h1c3.59 0 6.5 2.91 6.5 6.5v7c0 3.59-2.91 6.5-6.5 6.5h-1c-3.59 0-6.5-2.91-6.5-6.5v-7c0-3.59 2.91-6.5 6.5-6.5zm.5 5c-.552 0-1 .448-1 1v3.953c0 .552.448 1 1 1s1-.448 1-1V6c0-.552-.448-1-1-1zM426.5 0h1c3.59 0 6.5 2.91 6.5 6.5v7c0 3.59-2.91 6.5-6.5 6.5h-1c-3.59 0-6.5-2.91-6.5-6.5v-7c0-3.59 2.91-6.5 6.5-6.5zm.5 5c-.552 0-1 .448-1 1v3.967c0 .552.448 1 1 1s1-.448 1-1V6c0-.552-.448-1-1-1zM440.5 0h1c3.59 0 6.5 2.91 6.5 6.5v7c0 3.59-2.91 6.5-6.5 6.5h-1c-3.59 0-6.5-2.91-6.5-6.5v-7c0-3.59 2.91-6.5 6.5-6.5zm.5 5c-.552 0-1 .448-1 1v3.977c0 .552.448 1 1 1s1-.448 1-1V6c0-.552-.448-1-1-1zM454.5 0h1c3.59 0 6.5 2.91 6.5 6.5v7c0 3.59-2.91 6.5-6.5 6.5h-1c-3.59 0-6.5-2.91-6.5-6.5v-7c0-3.59 2.91-6.5 6.5-6.5zm.5 5c-.552 0-1 .448-1 1v3.986c0 .552.448 1 1 1s1-.448 1-1V6c0-.552-.448-1-1-1zM468.5 0h1c3.59 0 6.5 2.91 6.5 6.5v7c0 3.59-2.91 6.5-6.5 6.5h-1c-3.59 0-6.5-2.91-6.5-6.5v-7c0-3.59 2.91-6.5 6.5-6.5zm.5 5c-.552 0-1 .448-1 1v3.992c0 .552.448 1 1 1s1-.448 1-1V6c0-.552-.448-1-1-1zM482.5 0h1c3.59 0 6.5 2.91 6.5 6.5v7c0 3.59-2.91 6.5-6.5 6.5h-1c-3.59 0-6.5-2.91-6.5-6.5v-7c0-3.59 2.91-6.5 6.5-6.5zm.5 5c-.552 0-1 .448-1 1v3.997c0 .552.448 1 1 1s1-.448 1-1V6c0-.552-.448-1-1-1zM496.5 0h1c3.59 0 6.5 2.91 6.5 6.5v7c0 3.59-2.91 6.5-6.5 6.5h-1c-3.59 0-6.5-2.91-6.5-6.5v-7c0-3.59 2.91-6.5 6.5-6.5zm.5 5c-.552 0-1 .448-1 1v3.999c0 .552.448 1 1 1s1-.448 1-1V6c0-.552-.448-1-1-1zM510.5 0h1c3.59 0 6.5 2.91 6.5 6.5v7c0 3.59-2.91 6.5-6.5 6.5h-1c-3.59 0-6.5-2.91-6.5-6.5v-7c0-3.59 2.91-6.5 6.5-6.5zm-.5 6v4c0 .552.448 1 1 1s1-.448 1-1V6c0-.552-.448-1-1-1s-1 .448-1 1M524.5 0h1c3.59 0 6.5 2.91 6.5 6.5v7c0 3.59-2.91 6.5-6.5 6.5h-1c-3.59 0-6.5-2.91-6.5-6.5v-7c0-3.59 2.91-6.5 6.5-6.5zm-.5 6.029V10c0 .552.448 1 1 1s1-.448 1-1V6.029c0-.553-.448-1-1-1s-1 .447-1 1M538.5 0h1c3.59 0 6.5 2.91 6.5 6.5v7c0 3.59-2.91 6.5-6.5 6.5h-1c-3.59 0-6.5-2.91-6.5-6.5v-7c0-3.59 2.91-6.5 6.5-6.5zm-.5 6.131V10c0 .554.446 1 1 1 .553 0 1-.446 1-.999v-3.87c0-.553-.446-1-1-1s-1 .447-1 1M552.5 0h1c3.591 0 6.5 2.909 6.5 6.5v7c0 3.591-2.909 6.5-6.5 6.5h-1c-3.591 0-6.5-2.909-6.5-6.5v-7c0-3.591 2.909-6.5 6.5-6.5zm-.5 6.34V10c0 .556.444 1 1 1 .555 0 .999-.443 1-.998V6.34c0-.556-.444-1-1-1s-1 .444-1 1M566.5 0h1c3.592 0 6.5 2.908 6.5 6.5v7c0 3.592-2.908 6.5-6.5 6.5h-1c-3.592 0-6.5-2.908-6.5-6.5v-7c0-3.592 2.908-6.5 6.5-6.5zm-.5 6.701V10c0 .56.44 1 1 1 .559 0 .998-.438 1-.996V6.701c0-.561-.44-1-1-1s-1 .439-1 1M580.5 0h1c3.593 0 6.5 2.907 6.5 6.5v7c0 3.593-2.907 6.5-6.5 6.5h-1c-3.593 0-6.5-2.907-6.5-6.5v-7c0-3.593 2.907-6.5 6.5-6.5zm-.5 7.229V10c0 .567.433 1 1 1 .564 0 .997-.43 1-.993V7.229c0-.567-.433-1-1-1s-1 .433-1 1M594.5 0h1c3.595 0 6.5 2.905 6.5 6.5v7c0 3.595-2.905 6.5-6.5 6.5h-1c-3.595 0-6.5-2.905-6.5-6.5v-7c0-3.595 2.905-6.5 6.5-6.5zm-.5 7.829V10c0 .574.426 1 1 1 .57 0 .995-.421 1-.989V7.829c0-.574-.426-1-1-1-.574 0-1 .426-1 1M608.5 0h1c3.596 0 6.5 2.904 6.5 6.5v7c0 3.596-2.904 6.5-6.5 6.5h-1c-3.596 0-6.5-2.904-6.5-6.5v-7c0-3.596 2.904-6.5 6.5-6.5zm-.5 8.362V10c0 .58.42 1 1 1 .576 0 .994-.414 1-.986V8.362c0-.581-.42-1-1-1-.58 0-1 .419-1 1M622.5 0h1c3.597 0 6.5 2.903 6.5 6.5v7c0 3.597-2.903 6.5-6.5 6.5h-1c-3.597 0-6.5-2.903-6.5-6.5v-7c0-3.597 2.903-6.5 6.5-6.5zm-.5 8.781V10c0 .585.415 1 1 1 .58 0 .992-.408 1-.983V8.781c0-.585-.415-1-1-1s-1 .415-1 1M636.5 0h1c3.598 0 6.5 2.902 6.5 6.5v7c0 3.598-2.902 6.5-6.5 6.5h-1c-3.598 0-6.5-2.902-6.5-6.5v-7c0-3.598 2.902-6.5 6.5-6.5zm-.5 9.102V10c0 .589.411 1 1 1 .583 0 .991-.403 1-.981v-.917c0-.589-.411-1-1-1s-1 .411-1 1M650.5 0h1c3.598 0 6.5 2.902 6.5 6.5v7c0 3.598-2.902 6.5-6.5 6.5h-1c-3.598 0-6.5-2.902-6.5-6.5v-7c0-3.598 2.902-6.5 6.5-6.5zm-.5 9.349V10c0 .592.408 1 1 1 .585 0 .991-.399 1-.98v-.671c0-.593-.408-1-1-1-.592 0-1 .407-1 1M664.5 0h1c3.599 0 6.5 2.901 6.5 6.5v7c0 3.599-2.901 6.5-6.5 6.5h-1c-3.599 0-6.5-2.901-6.5-6.5v-7c0-3.599 2.901-6.5 6.5-6.5zm-.5 9.538V10c0 .594.406 1 1 1 .587 0 .99-.397 1-.979v-.483c0-.595-.406-1-1-1s-1 .405-1 1M678.5 0h1c3.599 0 6.5 2.901 6.5 6.5v7c0 3.599-2.901 6.5-6.5 6.5h-1c-3.599 0-6.5-2.901-6.5-6.5v-7c0-3.599 2.901-6.5 6.5-6.5zm-.5 9.683V10c0 .596.404 1 1 1 .589 0 .99-.395 1-.978v-.339c0-.596-.404-1-1-1s-1 .404-1 1M692.5 0h1c3.599 0 6.5 2.901 6.5 6.5v7c0 3.599-2.901 6.5-6.5 6.5h-1c-3.599 0-6.5-2.901-6.5-6.5v-7c0-3.599 2.901-6.5 6.5-6.5zm-.5 9.793V10c0 .598.402 1 1 1 .59 0 .99-.393 1-.977v-.23c0-.597-.402-1-1-1s-1 .403-1 1M706.5 0h1c3.6 0 6.5 2.9 6.5 6.5v7c0 3.6-2.9 6.5-6.5 6.5h-1c-3.6 0-6.5-2.9-6.5-6.5v-7c0-3.6 2.9-6.5 6.5-6.5zm-.5 9.875V10c0 .599.401 1 1 1 .591 0 .989-.392 1-.977v-.148c0-.598-.401-1-1-1s-1 .402-1 1M720.5 0h1c3.6 0 6.5 2.9 6.5 6.5v7c0 3.6-2.9 6.5-6.5 6.5h-1c-3.6 0-6.5-2.9-6.5-6.5v-7c0-3.6 2.9-6.5 6.5-6.5zm-.5 9.933V10c0 .599.401 1 1 1 .591 0 .989-.391 1-.976v-.091c0-.599-.401-1-1-1s-1 .401-1 1M734.5 0h1c3.6 0 6.5 2.9 6.5 6.5v7c0 3.6-2.9 6.5-6.5 6.5h-1c-3.6 0-6.5-2.9-6.5-6.5v-7c0-3.6 2.9-6.5 6.5-6.5zm-.5 9.972V10c0 .6.4 1 1 1 .592 0 .989-.39 1-.976v-.052c0-.6-.4-1-1-1s-1 .4-1 1M748.5 0h1c3.6 0 6.5 2.9 6.5 6.5v7c0 3.6-2.9 6.5-6.5 6.5h-1c-3.6 0-6.5-2.9-6.5-6.5v-7c0-3.6 2.9-6.5 6.5-6.5zm-.5 9.993V10c0 .6.4 1 1 1 .592 0 .989-.39 1-.976v-.031c0-.6-.4-1-1-1s-1 .4-1 1M762.5 0h1c3.6 0 6.5 2.9 6.5 6.5v7c0 3.6-2.9 6.5-6.5 6.5h-1c-3.6 0-6.5-2.9-6.5-6.5v-7c0-3.6 2.9-6.5 6.5-6.5zm.5 9c-.6 0-1 .4-1 1s.4 1 1 1 1-.4 1-1-.4-1-1-1z" fill="#ffffff"/><g fill="#ffffff"><path d="M776.5 0h1c3.6 0 6.5 2.9 6.5 6.5v7c0 3.6-2.9 6.5-6.5 6.5h-1c-3.6 0-6.5-2.9-6.5-6.5v-7c0-3.6 2.9-6.5 6.5-6.5zm.5 9c-.6 0-1 .4-1 1s.4 1 1 1 1-.4 1-1-.4-1-1-1z"/><path d="M777 8.8c-.7 0-1.2.5-1.2 1.2s.5 1.2 1.2 1.2 1.2-.5 1.2-1.2-.5-1.2-1.2-1.2z" fill-opacity=".00721"/></g><g fill="#ffffff"><path d="M790.5 0h1c3.6 0 6.5 2.9 6.5 6.5v7c0 3.6-2.9 6.5-6.5 6.5h-1c-3.6 0-6.5-2.9-6.5-6.5v-7c0-3.6 2.9-6.5 6.5-6.5zm.5 9c-.6 0-1 .4-1 1s.4 1 1 1 1-.4 1-1-.4-1-1-1z"/><path d="M791 8.8c-.7 0-1.2.5-1.2 1.2s.5 1.2 1.2 1.2 1.2-.5 1.2-1.2-.5-1.2-1.2-1.2z" fill-opacity=".032801"/></g><g fill="#ffffff"><path d="M804.5 0h1c3.6 0 6.5 2.9 6.5 6.5v7c0 3.6-2.9 6.5-6.5 6.5h-1c-3.6 0-6.5-2.9-6.5-6.5v-7c0-3.6 2.9-6.5 6.5-6.5zm.5 9c-.6 0-1 .4-1 1s.4 1 1 1 1-.4 1-1-.4-1-1-1z"/><path d="M805 8.8c-.7 0-1.2.5-1.2 1.2s.5 1.2 1.2 1.2 1.2-.5 1.2-1.2-.5-1.2-1.2-1.2z" fill-opacity=".085105"/></g><g fill="#ffffff"><path d="M818.5 0h1c3.6 0 6.5 2.9 6.5 6.5v7c0 3.6-2.9 6.5-6.5 6.5h-1c-3.6 0-6.5-2.9-6.5-6.5v-7c0-3.6 2.9-6.5 6.5-6.5zm.5 9c-.6 0-1 .4-1 1s.4 1 1 1 1-.4 1-1-.4-1-1-1z"/><path d="M819 8.8c-.7 0-1.2.5-1.2 1.2s.5 1.2 1.2 1.2 1.2-.5 1.2-1.2-.5-1.2-1.2-1.2z" fill-opacity=".175168"/></g><g fill="#ffffff"><path d="M832.5 0h1c3.6 0 6.5 2.9 6.5 6.5v7c0 3.6-2.9 6.5-6.5 6.5h-1c-3.6 0-6.5-2.9-6.5-6.5v-7c0-3.6 2.9-6.5 6.5-6.5zm.5 9c-.6 0-1 .4-1 1s.4 1 1 1 1-.4 1-1-.4-1-1-1z"/><path d="M833 8.8c-.7 0-1.2.5-1.2 1.2s.5 1.2 1.2 1.2 1.2-.5 1.2-1.2-.5-1.2-1.2-1.2z" fill-opacity=".30714"/></g><g fill="#ffffff"><path d="M846.5 0h1c3.6 0 6.5 2.9 6.5 6.5v7c0 3.6-2.9 6.5-6.5 6.5h-1c-3.6 0-6.5-2.9-6.5-6.5v-7c0-3.6 2.9-6.5 6.5-6.5zm.5 9c-.6 0-1 .4-1 1s.4 1 1 1 1-.4 1-1-.4-1-1-1z"/><path d="M847 8.8c-.7 0-1.2.5-1.2 1.2s.5 1.2 1.2 1.2 1.2-.5 1.2-1.2-.5-1.2-1.2-1.2z" fill-opacity=".457252"/></g><g fill="#ffffff"><path d="M860.5 0h1c3.6 0 6.5 2.9 6.5 6.5v7c0 3.6-2.9 6.5-6.5 6.5h-1c-3.6 0-6.5-2.9-6.5-6.5v-7c0-3.6 2.9-6.5 6.5-6.5zm.5 9c-.6 0-1 .4-1 1s.4 1 1 1 1-.4 1-1-.4-1-1-1z"/><path d="M861 8.8c-.7 0-1.2.5-1.2 1.2s.5 1.2 1.2 1.2 1.2-.5 1.2-1.2-.5-1.2-1.2-1.2z" fill-opacity=".590389"/></g><g fill="#ffffff"><path d="M874.5 0h1c3.6 0 6.5 2.9 6.5 6.5v7c0 3.6-2.9 6.5-6.5 6.5h-1c-3.6 0-6.5-2.9-6.5-6.5v-7c0-3.6 2.9-6.5 6.5-6.5zm.5 9c-.6 0-1 .4-1 1s.4 1 1 1 1-.4 1-1-.4-1-1-1z"/><path d="M875 8.8c-.7 0-1.2.5-1.2 1.2s.5 1.2 1.2 1.2 1.2-.5 1.2-1.2-.5-1.2-1.2-1.2z" fill-opacity=".695235"/></g><g fill="#ffffff"><path d="M888.5 0h1c3.6 0 6.5 2.9 6.5 6.5v7c0 3.6-2.9 6.5-6.5 6.5h-1c-3.6 0-6.5-2.9-6.5-6.5v-7c0-3.6 2.9-6.5 6.5-6.5zm.5 9c-.6 0-1 .4-1 1s.4 1 1 1 1-.4 1-1-.4-1-1-1z"/><path d="M889 8.8c-.7 0-1.2.5-1.2 1.2s.5 1.2 1.2 1.2 1.2-.5 1.2-1.2-.5-1.2-1.2-1.2z" fill-opacity=".775561"/></g><g fill="#ffffff"><path d="M902.5 0h1c3.6 0 6.5 2.9 6.5 6.5v7c0 3.6-2.9 6.5-6.5 6.5h-1c-3.6 0-6.5-2.9-6.5-6.5v-7c0-3.6 2.9-6.5 6.5-6.5zm.5 9c-.6 0-1 .4-1 1s.4 1 1 1 1-.4 1-1-.4-1-1-1z"/><path d="M903 8.8c-.7 0-1.2.5-1.2 1.2s.5 1.2 1.2 1.2 1.2-.5 1.2-1.2-.5-1.2-1.2-1.2z" fill-opacity=".837132"/></g><g fill="#ffffff"><path d="M916.5 0h1c3.6 0 6.5 2.9 6.5 6.5v7c0 3.6-2.9 6.5-6.5 6.5h-1c-3.6 0-6.5-2.9-6.5-6.5v-7c0-3.6 2.9-6.5 6.5-6.5zm.5 9c-.6 0-1 .4-1 1s.4 1 1 1 1-.4 1-1-.4-1-1-1z"/><path d="M917 8.8c-.7 0-1.2.5-1.2 1.2s.5 1.2 1.2 1.2 1.2-.5 1.2-1.2-.5-1.2-1.2-1.2z" fill-opacity=".884466"/></g><g fill="#ffffff"><path d="M930.5 0h1c3.6 0 6.5 2.9 6.5 6.5v7c0 3.6-2.9 6.5-6.5 6.5h-1c-3.6 0-6.5-2.9-6.5-6.5v-7c0-3.6 2.9-6.5 6.5-6.5zm.5 9c-.6 0-1 .4-1 1s.4 1 1 1 1-.4 1-1-.4-1-1-1z"/><path d="M931 8.8c-.7 0-1.2.5-1.2 1.2s.5 1.2 1.2 1.2 1.2-.5 1.2-1.2-.5-1.2-1.2-1.2z" fill-opacity=".920776"/></g><g fill="#ffffff"><path d="M944.5 0h1c3.6 0 6.5 2.9 6.5 6.5v7c0 3.6-2.9 6.5-6.5 6.5h-1c-3.6 0-6.5-2.9-6.5-6.5v-7c0-3.6 2.9-6.5 6.5-6.5zm.5 9c-.6 0-1 .4-1 1s.4 1 1 1 1-.4 1-1-.4-1-1-1z"/><path d="M945 8.8c-.7 0-1.2.5-1.2 1.2s.5 1.2 1.2 1.2 1.2-.5 1.2-1.2-.5-1.2-1.2-1.2z" fill-opacity=".948336"/></g><g fill="#ffffff"><path d="M958.5 0h1c3.6 0 6.5 2.9 6.5 6.5v7c0 3.6-2.9 6.5-6.5 6.5h-1c-3.6 0-6.5-2.9-6.5-6.5v-7c0-3.6 2.9-6.5 6.5-6.5zm.5 9c-.6 0-1 .4-1 1s.4 1 1 1 1-.4 1-1-.4-1-1-1z"/><path d="M959 8.8c-.7 0-1.2.5-1.2 1.2s.5 1.2 1.2 1.2 1.2-.5 1.2-1.2-.5-1.2-1.2-1.2z" fill-opacity=".968791"/></g><g fill="#ffffff"><path d="M972.5 0h1c3.6 0 6.5 2.9 6.5 6.5v7c0 3.6-2.9 6.5-6.5 6.5h-1c-3.6 0-6.5-2.9-6.5-6.5v-7c0-3.6 2.9-6.5 6.5-6.5zm.5 9c-.6 0-1 .4-1 1s.4 1 1 1 1-.4 1-1-.4-1-1-1z"/><path d="M973 8.8c-.7 0-1.2.5-1.2 1.2s.5 1.2 1.2 1.2 1.2-.5 1.2-1.2-.5-1.2-1.2-1.2z" fill-opacity=".983359"/></g><g fill="#ffffff"><path d="M986.5 0h1c3.6 0 6.5 2.9 6.5 6.5v7c0 3.6-2.9 6.5-6.5 6.5h-1c-3.6 0-6.5-2.9-6.5-6.5v-7c0-3.6 2.9-6.5 6.5-6.5zm.5 9c-.6 0-1 .4-1 1s.4 1 1 1 1-.4 1-1-.4-1-1-1z"/><path d="M987 8.8c-.7 0-1.2.5-1.2 1.2s.5 1.2 1.2 1.2 1.2-.5 1.2-1.2-.5-1.2-1.2-1.2z" fill-opacity=".992963"/></g><g fill="#ffffff"><path d="M1000.5 0h1c3.6 0 6.5 2.9 6.5 6.5v7c0 3.6-2.9 6.5-6.5 6.5h-1c-3.6 0-6.5-2.9-6.5-6.5v-7c0-3.6 2.9-6.5 6.5-6.5zm.5 9c-.6 0-1 .4-1 1s.4 1 1 1 1-.4 1-1-.4-1-1-1z"/><path d="M1001 8.8c-.7 0-1.2.5-1.2 1.2s.5 1.2 1.2 1.2 1.2-.5 1.2-1.2-.5-1.2-1.2-1.2z" fill-opacity=".998321"/></g><g fill="#ffffff"><path d="M1014.5 0h1c3.6 0 6.5 2.9 6.5 6.5v7c0 3.6-2.9 6.5-6.5 6.5h-1c-3.6 0-6.5-2.9-6.5-6.5v-7c0-3.6 2.9-6.5 6.5-6.5zm-.5 10.029c.013.584.41.971 1 .971.591 0 .988-.388 1-.973V10c0-.6-.4-1-1-1-.59 0-.986.386-1 .969v.06"/><path d="M1015 8.8c-.689 0-1.185.485-1.2 1.168V10c0 .7.5 1.2 1.2 1.2s1.2-.5 1.2-1.2c0-.013 0-.027-.001-.04-.018-.679-.512-1.16-1.199-1.16z"/></g><g fill="#ffffff"><path d="M1028.5 0h1c3.6 0 6.5 2.9 6.5 6.5v7c0 3.6-2.9 6.5-6.5 6.5h-1c-3.6 0-6.5-2.9-6.5-6.5v-7c0-3.6 2.9-6.5 6.5-6.5zm-.498 10.019c.014.582.41.967.998.967.591 0 .988-.389 1-.974v-.041c0-.599-.4-1-1-1-.59 0-.986.387-1 .969v.046c0 .011.001.022.002.033"/><path d="M1029 8.771c-.689 0-1.185.485-1.2 1.169V10c0 .7.5 1.2 1.2 1.2s1.2-.5 1.2-1.2c0-.023 0-.046-.001-.069-.018-.679-.512-1.16-1.199-1.16z" fill-opacity=".99279"/></g><g fill="#ffffff"><path d="M1042.5 0h1c3.6 0 6.5 2.9 6.5 6.5v7c0 3.6-2.9 6.5-6.5 6.5h-1c-3.6 0-6.5-2.9-6.5-6.5v-7c0-3.6 2.9-6.5 6.5-6.5zm-.49 9.986c.018.57.41.948.99.948.59 0 .988-.39 1-.973v-.092c0-.599-.402-1-1-1-.589 0-.986.388-1 .97v.095c0 .019.004.036.01.052"/><path d="M1043 8.669c-.69 0-1.185.485-1.2 1.169V10c0 .7.5 1.2 1.2 1.2s1.2-.5 1.2-1.2c0-.057 0-.113-.001-.17-.018-.68-.512-1.161-1.199-1.161z" fill-opacity=".967199"/></g><g fill="#ffffff"><path d="M1056.5 0h1c3.599 0 6.5 2.901 6.5 6.5v7c0 3.599-2.901 6.5-6.5 6.5h-1c-3.599 0-6.5-2.901-6.5-6.5v-7c0-3.599 2.901-6.5 6.5-6.5zm-.475 9.916c.027.55.412.914.975.914.588 0 .989-.393 1-.976V9.66c0-.596-.404-1-1-1-.587 0-.987.391-1 .971v.199c0 .032.01.062.025.086"/><path d="M1057 8.46c-.69 0-1.186.486-1.2 1.171V10c0 .7.5 1.2 1.2 1.2s1.2-.5 1.2-1.2c0-.126 0-.251-.001-.377-.017-.681-.511-1.163-1.199-1.163z" fill-opacity=".914895"/></g><g fill="#ffffff"><path d="M1070.5 0h1c3.598 0 6.5 2.902 6.5 6.5v7c0 3.598-2.902 6.5-6.5 6.5h-1c-3.598 0-6.5-2.902-6.5-6.5v-7c0-3.598 2.902-6.5 6.5-6.5zm-.449 9.797c.043.514.414.853.949.853.584 0 .99-.399 1-.978v-.373c0-.591-.408-1-1-1-.583 0-.988.397-1 .975v.376c0 .056.02.107.051.147"/><path d="M1071 8.099c-.691 0-1.187.488-1.2 1.174V10c0 .7.5 1.2 1.2 1.2s1.2-.5 1.2-1.2v-.734c-.016-.682-.511-1.167-1.2-1.167z" fill-opacity=".824832"/></g><g fill="#ffffff"><path d="M1084.5 0h1c3.597 0 6.5 2.903 6.5 6.5v7c0 3.597-2.903 6.5-6.5 6.5h-1c-3.597 0-6.5-2.903-6.5-6.5v-7c0-3.597 2.903-6.5 6.5-6.5zm-.41 9.623c.065.46.416.763.91.763.579 0 .992-.407 1-.982v-.633c0-.585-.415-1-1-1-.578 0-.99.405-1 .979v.636c0 .091.034.174.09.237"/><path d="M1085 7.571c-.693 0-1.189.49-1.2 1.178V10c0 .7.5 1.2 1.2 1.2s1.2-.5 1.2-1.2V8.744c-.013-.686-.509-1.173-1.2-1.173z" fill-opacity=".69286"/></g><g fill="#ffffff"><path d="M1098.5 0h1c3.595 0 6.5 2.905 6.5 6.5v7c0 3.595-2.905 6.5-6.5 6.5h-1c-3.595 0-6.5-2.905-6.5-6.5v-7c0-3.595 2.905-6.5 6.5-6.5zm-.366 9.425c.09.399.42.66.866.66.573 0 .993-.415 1-.985v-.929c0-.578-.422-1-1-1-.573 0-.992.414-1 .983v.931c0 .132.051.251.134.34"/><path d="M1099 6.971c-.694 0-1.192.492-1.2 1.183V10c0 .7.5 1.2 1.2 1.2s1.2-.5 1.2-1.2V8.149c-.01-.688-.507-1.178-1.2-1.178z" fill-opacity=".542748"/></g><g fill="#ffffff"><path d="M1112.5 0h1c3.594 0 6.5 2.906 6.5 6.5v7c0 3.594-2.906 6.5-6.5 6.5h-1c-3.594 0-6.5-2.906-6.5-6.5v-7c0-3.594 2.906-6.5 6.5-6.5zm-.327 9.249c.112.346.422.57.827.57.568 0 .995-.423 1-.989V7.638c0-.571-.428-1-1-1-.568 0-.994.423-1 .988v1.193c0 .167.066.319.173.43"/><path d="M1113 6.438c-.696 0-1.194.494-1.2 1.187V10c0 .7.5 1.2 1.2 1.2s1.2-.5 1.2-1.2V7.622c-.008-.691-.506-1.184-1.2-1.184z" fill-opacity=".409611"/></g><g fill="#ffffff"><path d="M1126.5 0h1c3.593 0 6.5 2.907 6.5 6.5v7c0 3.593-2.907 6.5-6.5 6.5h-1c-3.593 0-6.5-2.907-6.5-6.5v-7c0-3.593 2.907-6.5 6.5-6.5zm-.296 9.11c.13.304.424.5.796.5.564 0 .996-.43 1-.992V7.219c0-.567-.433-1-1-1-.564 0-.996.429-1 .991v1.4c0 .194.078.371.204.5"/><path d="M1127 6.019c-.697 0-1.195.495-1.2 1.19V10c0 .7.5 1.2 1.2 1.2s1.2-.5 1.2-1.2V7.207c-.006-.694-.504-1.188-1.2-1.188z" fill-opacity=".304765"/></g><g fill="#ffffff"><path d="M1140.5 0h1c3.592 0 6.5 2.908 6.5 6.5v7c0 3.592-2.908 6.5-6.5 6.5h-1c-3.592 0-6.5-2.908-6.5-6.5v-7c0-3.592 2.908-6.5 6.5-6.5zm-.273 9.004c.144.271.427.445.773.445.561 0 .997-.435 1-.994V6.898c0-.563-.437-1-1-1-.561 0-.997.434-1 .993v1.558c0 .216.087.412.227.555"/><path d="M1141 5.698c-.698 0-1.197.496-1.2 1.193V10c0 .7.5 1.2 1.2 1.2s1.2-.5 1.2-1.2V6.889c-.004-.696-.503-1.191-1.2-1.191z" fill-opacity=".224439"/></g><g fill="#ffffff"><path d="M1154.5 0h1c3.592 0 6.5 2.908 6.5 6.5v7c0 3.592-2.908 6.5-6.5 6.5h-1c-3.592 0-6.5-2.908-6.5-6.5v-7c0-3.592 2.908-6.5 6.5-6.5zm-.255 8.922c.154.247.428.404.755.404.558 0 .998-.438 1-.996V6.651c0-.559-.44-1-1-1-.558 0-.998.438-1 .995v1.68c0 .232.094.443.245.596"/><path d="M1155 5.451c-.698 0-1.198.498-1.2 1.195V10c0 .7.5 1.2 1.2 1.2s1.2-.5 1.2-1.2V6.645c-.003-.697-.502-1.194-1.2-1.194z" fill-opacity=".162868"/></g><g fill="#ffffff"><path d="M1168.5 0h1c3.591 0 6.5 2.909 6.5 6.5v7c0 3.591-2.909 6.5-6.5 6.5h-1c-3.591 0-6.5-2.909-6.5-6.5v-7c0-3.591 2.909-6.5 6.5-6.5zm-.241 8.86c.162.227.429.371.741.371.557 0 .999-.441 1-.997V6.462c0-.557-.442-1-1-1-.556 0-.998.441-1 .997v1.772c0 .245.099.467.259.629"/><path d="M1169 5.262c-.699 0-1.198.498-1.2 1.196V10c0 .7.5 1.2 1.2 1.2s1.2-.5 1.2-1.2V6.458c-.002-.698-.502-1.196-1.2-1.196z" fill-opacity=".115534"/></g><g fill="#ffffff"><path d="M1182.5 0h1c3.591 0 6.5 2.909 6.5 6.5v7c0 3.591-2.909 6.5-6.5 6.5h-1c-3.591 0-6.5-2.909-6.5-6.5v-7c0-3.591 2.909-6.5 6.5-6.5zm-.23 8.812c.167.213.429.346.73.346.555 0 .999-.443 1-.997V6.317c0-.556-.444-1-1-1-.555 0-.999.443-1 .997v1.844c0 .255.103.486.27.654"/><path d="M1183 5.117c-.699 0-1.199.499-1.2 1.197V10c0 .7.5 1.2 1.2 1.2s1.2-.5 1.2-1.2V6.314c-.002-.699-.501-1.197-1.2-1.197z" fill-opacity=".079224"/></g><g fill="#ffffff"><path d="M1196.5 0h1c3.591 0 6.5 2.909 6.5 6.5v7c0 3.591-2.909 6.5-6.5 6.5h-1c-3.591 0-6.5-2.909-6.5-6.5v-7c0-3.591 2.909-6.5 6.5-6.5zm-.222 8.775c.172.202.43.328.722.328.554 0 .999-.445 1-.998V6.207c0-.555-.446-1-1-1s-.999.444-1 .998v1.898c0 .263.106.5.278.672"/><path d="M1197 5.007c-.699 0-1.199.499-1.2 1.198V10c0 .7.5 1.2 1.2 1.2s1.2-.5 1.2-1.2V6.205c-.001-.699-.501-1.198-1.2-1.198z" fill-opacity=".051664"/></g><g fill="#ffffff"><path d="M1210.5 0h1c3.59 0 6.5 2.91 6.5 6.5v7c0 3.59-2.91 6.5-6.5 6.5h-1c-3.59 0-6.5-2.91-6.5-6.5v-7c0-3.59 2.91-6.5 6.5-6.5zm-.216 8.748c.176.194.43.314.716.314.553 0 1-.446 1-.999V6.125c0-.554-.447-1-1-1-.553 0-1 .446-1 .999v1.938c0 .268.109.511.284.686"/><path d="M1211 4.925c-.7 0-1.2.499-1.2 1.199V10c0 .7.5 1.2 1.2 1.2s1.2-.5 1.2-1.2V6.124c-.001-.7-.5-1.199-1.2-1.199z" fill-opacity=".031209"/></g><g fill="#ffffff"><path d="M1224.5 0h1c3.59 0 6.5 2.91 6.5 6.5v7c0 3.59-2.91 6.5-6.5 6.5h-1c-3.59 0-6.5-2.91-6.5-6.5v-7c0-3.59 2.91-6.5 6.5-6.5zm-.212 8.729c.178.188.431.304.712.304.553 0 1-.447 1-.999V6.067c0-.553-.447-1-1-1-.553 0-1 .447-1 .999v1.967c0 .272.11.518.288.696"/><path d="M1225 4.867c-.7 0-1.2.499-1.2 1.199V10c0 .7.5 1.2 1.2 1.2s1.2-.5 1.2-1.2V6.066c0-.7-.5-1.199-1.2-1.199z" fill-opacity=".016641"/></g><g fill="#ffffff"><path d="M1238.5 0h1c3.59 0 6.5 2.91 6.5 6.5v7c0 3.59-2.91 6.5-6.5 6.5h-1c-3.59 0-6.5-2.91-6.5-6.5v-7c0-3.59 2.91-6.5 6.5-6.5zm-.209 8.716c.18.184.431.298.709.298.552 0 1-.448 1-1V6.028c0-.552-.448-1-1-1s-1 .448-1 1v1.986c0 .274.111.523.291.702"/><path d="M1239 4.828c-.7 0-1.2.5-1.2 1.2V10c0 .7.5 1.2 1.2 1.2s1.2-.5 1.2-1.2V6.028c0-.7-.5-1.2-1.2-1.2z" fill-opacity=".007037"/></g><g fill="#ffffff"><path d="M1252.5 0h1c3.59 0 6.5 2.91 6.5 6.5v7c0 3.59-2.91 6.5-6.5 6.5h-1c-3.59 0-6.5-2.91-6.5-6.5v-7c0-3.59 2.91-6.5 6.5-6.5zm-.207 8.709c.18.182.43.294.707.294.552 0 1-.448 1-1V6.007c0-.552-.448-1-1-1s-1 .448-1 1v1.996c0 .276.112.526.293.706"/><path d="M1253 4.807c-.7 0-1.2.5-1.2 1.2V10c0 .7.5 1.2 1.2 1.2s1.2-.5 1.2-1.2V6.007c0-.7-.5-1.2-1.2-1.2z" fill-opacity=".001679"/></g><path d="M1266.5 0h1c3.59 0 6.5 2.91 6.5 6.5v7c0 3.59-2.91 6.5-6.5 6.5h-1c-3.59 0-6.5-2.91-6.5-6.5v-7c0-3.59 2.91-6.5 6.5-6.5zm-.207 8.707c.181.181.431.293.707.293.552 0 1-.448 1-1V6c0-.552-.448-1-1-1s-1 .448-1 1v2c0 .276.112.526.293.707" fill="#ffffff"/></svg>