<?xml version="1.0" encoding="UTF-8"?>
<svg width="22px" height="44px" viewBox="0 0 22 44" version="1.1" xmlns="http://www.w3.org/2000/svg" xmlns:xlink="http://www.w3.org/1999/xlink">
    <!-- Generator: Sketch 53.2 (72643) - https://sketchapp.com -->
    <title>Group 2</title>
    <desc>Created with Sketch.</desc>
    <g id="Design" stroke="none" stroke-width="1" fill="none" fill-rule="evenodd" stroke-linecap="round" stroke-linejoin="round">
        <g id="HP-(mobile)" transform="translate(-263.000000, -36.000000)" stroke-width="2">
            <g id="Top" transform="translate(41.000000, 32.000000)">
                <g id="Group-2" transform="translate(223.000000, 5.000000)">
                    <path d="M19.999372,14.9738367 L19.999372,17.9846419 C20.0016706,18.5498153 19.7651169,19.0897664 19.3478256,19.4718441 C18.9305343,19.8539218 18.371179,20.0427161 17.8071777,19.9918454 C14.7127989,19.6562819 11.7404301,18.6009985 9.12890411,16.9107881 C6.69921689,15.369922 4.63926626,13.3140519 3.0953419,10.8891776 C1.39586648,8.27098537 0.338248335,5.29007801 0.00816923981,2.18795048 C-0.0426401816,1.62680897 0.145203513,1.07019147 0.525814465,0.654066701 C0.906425418,0.237941937 1.44475461,0.000629267509 2.0093007,9.86730627e-05 L5.02608181,9.86730627e-05 C6.03556118,-0.00981706989 6.89598415,0.728680905 7.03726921,1.72629367 C7.16460052,2.68981804 7.40074051,3.63587369 7.7411848,4.54641458 C8.01745659,5.27992203 7.84075373,6.10682086 7.28866764,6.66401426 L6.01156364,7.93858847 C7.44308205,10.4511514 9.52757592,12.5315162 12.0451258,13.9601989 L13.3222298,12.6856247 C13.8805292,12.1346322 14.7090692,11.9582794 15.4440326,12.2340039 C16.3563807,12.5737739 17.3043141,12.8094461 18.2697509,12.9365252 C19.2809383,13.0788964 20.0247029,13.9549728 19.999372,14.9738367 Z" id="Path" stroke="#FFFFFF" transform="translate(10.000000, 10.000000) scale(-1, 1) translate(-10.000000, -10.000000) "></path>
                    <path d="M19.999372,36.9738367 L19.999372,39.9846419 C20.0016706,40.5498153 19.7651169,41.0897664 19.3478256,41.4718441 C18.9305343,41.8539218 18.371179,42.0427161 17.8071777,41.9918454 C14.7127989,41.6562819 11.7404301,40.6009985 9.12890411,38.9107881 C6.69921689,37.369922 4.63926626,35.3140519 3.0953419,32.8891776 C1.39586648,30.2709854 0.338248335,27.290078 0.00816923981,24.1879505 C-0.0426401816,23.626809 0.145203513,23.0701915 0.525814465,22.6540667 C0.906425418,22.2379419 1.44475461,22.0006293 2.0093007,22.0000987 L5.02608181,22.0000987 C6.03556118,21.9901829 6.89598415,22.7286809 7.03726921,23.7262937 C7.16460052,24.689818 7.40074051,25.6358737 7.7411848,26.5464146 C8.01745659,27.279922 7.84075373,28.1068209 7.28866764,28.6640143 L6.01156364,29.9385885 C7.44308205,32.4511514 9.52757592,34.5315162 12.0451258,35.9601989 L13.3222298,34.6856247 C13.8805292,34.1346322 14.7090692,33.9582794 15.4440326,34.2340039 C16.3563807,34.5737739 17.3043141,34.8094461 18.2697509,34.9365252 C19.2809383,35.0788964 20.0247029,35.9549728 19.999372,36.9738367 Z" id="Path" stroke="#6A3332" transform="translate(10.000000, 32.000000) scale(-1, 1) translate(-10.000000, -32.000000) "></path>
                </g>
            </g>
        </g>
    </g>
</svg>